inDegrees=no
num_controls=7
num_derivatives=13
num_iterations=147
num_multipliers=7
num_parameters=0
num_slacks=7
num_states=26
objective=5.518683
objective_accelerations=0.535316
objective_balance=0.114592
objective_effort=0.368176
objective_height=4.398208
objective_ligament=0.102391
solver_duration=1671.074746
status=Solve_Succeeded
success=true
DataType=double
version=3
OpenSimVersion=4.4-2022-07-23-0e9fedc
endheader
time	/jointset/ground_pelvis/pelvis_tilt/value	/jointset/ground_pelvis/pelvis_tx/value	/jointset/ground_pelvis/pelvis_ty/value	/jointset/hip_l/hip_flexion_l/value	/jointset/hip_l/hip_adduction_l/value	/jointset/hip_l/hip_rotation_l/value	/jointset/back/lumbar_extension/value	/jointset/patellofemoral_l/patellar_flexion_l/value	/jointset/knee_l/knee_flexion_l/value	/jointset/knee_l/knee_adduction_l/value	/jointset/knee_l/knee_rotation_l/value	/jointset/ankle_l/ankle_angle_l/value	/jointset/subtalar_l/subtalar_angle_l/value	/jointset/ground_pelvis/pelvis_tilt/speed	/jointset/ground_pelvis/pelvis_tx/speed	/jointset/ground_pelvis/pelvis_ty/speed	/jointset/hip_l/hip_flexion_l/speed	/jointset/hip_l/hip_adduction_l/speed	/jointset/hip_l/hip_rotation_l/speed	/jointset/back/lumbar_extension/speed	/jointset/patellofemoral_l/patellar_flexion_l/speed	/jointset/knee_l/knee_flexion_l/speed	/jointset/knee_l/knee_adduction_l/speed	/jointset/knee_l/knee_rotation_l/speed	/jointset/ankle_l/ankle_angle_l/speed	/jointset/subtalar_l/subtalar_angle_l/speed	/forceset/tau_hip_flexion_l	/forceset/tau_hip_adduction_l	/forceset/tau_hip_rotation_l	/forceset/tau_knee_flexion_l	/forceset/tau_ankle_angle_l	/forceset/tau_subtalar_angle_l	/forceset/tau_lumbar_extension	lambda_cid13_p0	lambda_cid13_p1	lambda_cid13_p2	lambda_cid13_p3	lambda_cid13_p4	lambda_cid13_p5	lambda_cid14_p0	/jointset/ground_pelvis/pelvis_tilt/accel	/jointset/ground_pelvis/pelvis_tx/accel	/jointset/ground_pelvis/pelvis_ty/accel	/jointset/hip_l/hip_flexion_l/accel	/jointset/hip_l/hip_adduction_l/accel	/jointset/hip_l/hip_rotation_l/accel	/jointset/back/lumbar_extension/accel	/jointset/patellofemoral_l/patellar_flexion_l/accel	/jointset/knee_l/knee_flexion_l/accel	/jointset/knee_l/knee_adduction_l/accel	/jointset/knee_l/knee_rotation_l/accel	/jointset/ankle_l/ankle_angle_l/accel	/jointset/subtalar_l/subtalar_angle_l/accel	gamma_cid13_p0	gamma_cid13_p1	gamma_cid13_p2	gamma_cid13_p3	gamma_cid13_p4	gamma_cid13_p5	gamma_cid14_p0
0	-0.1601651303140665	0.05857377635807244	0.8979986743341196	0.3774920279260975	-0.2591381303788312	-0.2729501422785366	-0.0126506700172305	0.03223623128434331	0.03223623128433527	-0.174532781592209	0.1745079944455974	-0.04231376238535053	-0.009262793677867023	0	0	0	0	0	0	0	0	0	0	0	0	0	0.1590085517092344	-0.1026397487741692	-0.05820863269402761	-0.3530028948489062	0.4039991194320386	-0.04899268726484297	-0.09337602753630582	87.71813362831799	0.3637261491148336	5.884725793674792	-41.24245395432479	-596.0890521932971	-80.21178936107043	-39.0744552702862	-3.038930638155136	-1.112799330097043	-0.8735214895311255	9.907251705360181	-1.208627606228312	3.146921365986448	-5.143824508973641	9.18280081216124	9.182800812160488	0.1974190195129401	0.08955988520340816	2.514968741274478	-0.6526741772996533	-2.464666616852102e-08	3.991147059226957e-08	6.258665506914053e-08	5.136864072944279e-09	2.445176780242293e-08	-4.03983606024698e-08	-9.090642873276791e-09
0.01	-0.1603114130723179	0.05851858340610154	0.8979560144967801	0.3779748939383347	-0.2591980888073163	-0.272792337840277	-0.01290837042777398	0.03268489322286217	0.03268489322349887	-0.1745244525326375	0.1745085366908224	-0.04219178859101865	-0.009295834656072512	-0.02908730549401559	-0.01102292738280772	-0.008503289016481614	0.09615032771692196	-0.01193381238317507	0.03149403536786138	-0.05119098130340225	0.08932698583487929	0.0893269858348924	0.001656832737711319	3.406970958405163e-05	0.02424525276249455	-0.006587024514113906	0.1515615750104294	-0.1130177541307358	-0.05638295965008663	-0.342095018160002	0.3852634832915658	-0.03185746999230509	-0.08775400059256702	82.31427629575714	-5.838466925502054	6.538325287090652	-37.89382917727161	-596.9560672838257	-91.96125878360139	-39.08724876071429	-2.818248554955622	-1.094688961025478	-0.8344259497346592	9.405487489021789	-1.177094163508893	3.140609083568091	-5.054369822123328	8.746838995508856	8.746838995511297	0.1484845153713153	-0.05083310173970972	2.356875606823193	-0.6585541770556893	-5.580544135779378e-08	1.031800436236263e-07	1.026118900630112e-07	2.719995507625301e-08	-8.184630993823734e-08	-1.892275870083662e-08	-1.46923644274044e-08
0.02	-0.1607434924954438	0.05835363127657317	0.8978291831008746	0.3794065760645476	-0.2593756525814476	-0.2723216001560014	-0.01366750762755123	0.03401466332577339	0.03401466332575973	-0.1744998213211124	0.1745071869089884	-0.04183184785643905	-0.009394113397136274	-0.05715933298554982	-0.02195183551149345	-0.01683431171319421	0.1897632228003463	-0.02352106913217612	0.06258664919108389	-0.1002873578509108	0.1762216327240918	0.1762216327241276	0.003260430054188617	-0.0003784052037371736	0.04759338804844887	-0.01304755257179338	0.1441145983111389	-0.1233957594876103	-0.05455728661254449	-0.331187141470262	0.3665278471510286	-0.01472225271999828	-0.08213197364909823	76.98587135275918	-12.05567817812845	7.196389018289276	-34.73938466713302	-596.7144723713973	-103.6007570063354	-39.1250136036437	-2.835875037659863	-1.093995479271836	-0.8390682255773481	9.399765178660525	-1.139316479393925	3.066637057058001	-4.724903557795525	8.696333023027933	8.696333023029105	0.1867719352652783	0.0002509606230894496	2.335545245967288	-0.6273748860129439	-8.696421654706654e-08	1.664486166549831e-07	1.426371250568819e-07	4.926304607956174e-08	-1.881443876788976e-07	2.552843200796554e-09	-2.029408598153201e-08
0.03	-0.1614518025599945	0.05808058043491852	0.8976197721464948	0.3817616994699693	-0.2596669921900557	-0.271543183899063	-0.01490703112371132	0.03620166037572877	0.03620166037552751	-0.1744590967898871	0.1745008267718059	-0.04124182219758748	-0.009555777175718589	-0.08436690403912829	-0.03256908628838112	-0.02502769418374961	0.2807943930728773	-0.03465942830718576	0.09290678635370944	-0.1472830917176426	0.2607939070217811	0.2607939070217404	0.004892396869749407	-0.0008413928121752351	0.07036302313147355	-0.01921343716057681	0.1392988507598432	-0.1161845164933247	-0.05387821819338789	-0.3268136672455254	0.3624123032581388	-0.01875696668702314	-0.07812725294239019	75.50516245179831	-10.20420260932883	7.084040479273961	-34.28162516876706	-597.0232823349844	-99.02745464387456	-39.18641471109756	-2.642841000927099	-1.032192953450447	-0.8064835693608824	8.884719927106993	-1.088015136874996	2.986212784597118	-4.636770853252122	8.280098181666911	8.280098181654528	0.152639216599997	-0.061753425805905	2.240358624605775	-0.6004719849592984	-1.031768441437242e-07	1.525656224172954e-07	1.655196802509111e-07	6.63142447720107e-08	-2.879845972579766e-07	-2.830548452272144e-09	-2.556371703097087e-08
0.04	-0.1624281169073719	0.05770403647018602	0.8973290253050979	0.3850131199733021	-0.2600670992904852	-0.2704672641227826	-0.01660648446894961	0.03922286487813602	0.03922286487814704	-0.1744018065585747	0.1744914007980288	-0.04042556299087671	-0.009776955148118214	-0.1107601895616918	-0.04265046012706284	-0.0331014891165941	0.3690226423677178	-0.04527456749505539	0.1220873530655794	-0.1922733276700859	0.3430631232605871	0.3430631232604641	0.006573570161224993	-0.000991572589761762	0.09284009761993656	-0.02495039133530676	0.1344831032089242	-0.1089732734989804	-0.05319914977210705	-0.322440193020916	0.3582967593653067	-0.02279168065400573	-0.07412253223544686	74.09530960490923	-8.362858651601297	6.970713087829863	-34.00989393184719	-596.3116413632001	-94.34410140337219	-39.27006537524547	-2.673017931457764	-0.9868200916299209	-0.8151507180351808	8.839180983122297	-1.034672481966182	2.838722966905721	-4.323803974938381	8.235721411251406	8.23572141125144	0.196613230447575	0.06281252679461911	2.277033127055752	-0.5415888032023247	-1.190813037487816e-07	1.370918742152976e-07	1.880487781294795e-07	8.326210547866875e-08	-3.876916549161982e-07	-8.767733786881095e-09	-3.082650085350894e-08
0.05	-0.163664149040737	0.05722862624104122	0.8969579072485053	0.3891337274859851	-0.2605708951262211	-0.2691048208704068	-0.01874578508077085	0.04305543023669677	0.04305543023677823	-0.1743279339840537	0.1744816855689815	-0.03938693735379888	-0.01005376571150958	-0.1362687753500403	-0.05241378025964692	-0.0411195180968599	0.4546731063536887	-0.05540705765759125	0.1502705801001766	-0.2352769072694201	0.4230466864961598	0.4230466864960941	0.008168111246840916	-0.000964208294703646	0.114731602449423	-0.03037763133964077	0.1263181565049038	-0.1049606820748812	-0.05151207891542169	-0.3121126293137062	0.3430423584523202	-0.01988419620157529	-0.06800517456760728	69.34161832962326	-8.864218937152538	7.131714482694339	-30.9086875746415	-595.608187595039	-93.93383753668702	-39.37420337684824	-2.46316633058031	-0.9684003665361528	-0.7948167163509465	8.364101340759083	-0.9909327152259154	2.788488754220761	-4.242151840092018	7.819190692850223	7.819190692858665	0.1359897752852554	-0.02923636458824216	2.122186538729968	-0.5382195418519355	-1.342134006096083e-07	1.391070478611042e-07	2.195659846552018e-07	9.446435490408844e-08	-4.545253262970395e-07	-1.138013009141784e-08	-3.666852974715335e-08
0.06	-0.1651499445175592	0.05665612033207914	0.8965066713564459	0.3940980640854471	-0.2611736949499496	-0.2674644721112176	-0.02130582486611094	0.04767573461035301	0.04767573461037571	-0.1742390929530659	0.1744718570334965	-0.03813400119285785	-0.01038383426350546	-0.1607128582608816	-0.06206959609051783	-0.04912505620995227	0.5377684597165998	-0.0650753650933143	0.1776684544341471	-0.2764211623752977	0.5006109262573516	0.500610926257346	0.009567261439115017	-0.001014233817608073	0.1357022023923123	-0.03560198905610364	0.1181532098011149	-0.1009480906507075	-0.04982500805934142	-0.3017850656061112	0.3277879575394818	-0.01697671174903231	-0.06188781689974081	64.65055266013137	-9.374542683157712	7.291861518728486	-27.97848163934431	-593.9953587916991	-93.42940343785014	-39.49692937725962	-2.460117355957202	-0.9653192312866348	-0.8126525446005101	8.328158858510255	-0.9418359366038482	2.681652426779495	-3.951939076247589	7.751856716375281	7.751856716375934	0.1575350517786811	0.04733456320305488	2.092852149737066	-0.5010123456281452	-1.493129769338358e-07	1.418585971636606e-07	2.514616378608043e-07	1.054246838545086e-07	-5.199748550977806e-07	-1.385253527889891e-08	-4.253494790694961e-08
